<?xml version="1.0" encoding="UTF-8" standalone="no"?>
<!-- Created with Inkscape (http://www.inkscape.org/) -->

<svg
   width="26.742037mm"
   height="26.657417mm"
   viewBox="0 0 26.742037 26.657417"
   version="1.1"
   id="svg1"
   xml:space="preserve"
   xmlns:inkscape="http://www.inkscape.org/namespaces/inkscape"
   xmlns:sodipodi="http://sodipodi.sourceforge.net/DTD/sodipodi-0.dtd"
   xmlns="http://www.w3.org/2000/svg"
   xmlns:svg="http://www.w3.org/2000/svg"><sodipodi:namedview
     id="namedview1"
     pagecolor="#ffffff"
     bordercolor="#111111"
     borderopacity="1"
     inkscape:showpageshadow="0"
     inkscape:pageopacity="0"
     inkscape:pagecheckerboard="1"
     inkscape:deskcolor="#d1d1d1"
     inkscape:document-units="mm" /><defs
     id="defs1" /><g
     inkscape:label="Layer 1"
     inkscape:groupmode="layer"
     id="layer1"
     transform="translate(-41.804685,-170.7037)"><path
       style="fill:#AB8A53"
       d="m 88.188427,175.78442 c -5.82211,-0.68004 -11.19231,-3.27313 -15.53289,-7.50032 -3.44876,-3.35867 -5.9326,-7.56953 -7.19718,-12.2014 -0.86266,-3.15972 -1.00714,-8.69247 -0.31446,-12.04207 0.94127,-4.55165 2.8871,-8.57138 5.83942,-12.06314 1.89142,-2.23703 7.62201,-6.91423 10.45682,-8.53466 6.29055,-3.5958 12.43328,-5.17043 17.7619,-4.5531 7.617803,0.88255 14.236583,4.64323 18.822733,10.69475 1.57051,2.07232 3.6002,6.3073 4.33053,9.03572 0.78506,2.93288 1.00289,8.29379 0.44628,10.98338 -1.25585,6.06835 -4.64036,11.98699 -9.39236,16.42483 -1.10464,1.03162 -3.77798,3.04971 -5.94074,4.48463 -5.13853,3.40926 -8.443273,4.70959 -13.425823,5.28268 -2.5031,0.28791 -3.30581,0.28636 -5.85423,-0.0113 z m 6.64798,-3.44059 c 7.976203,-1.25844 14.862773,-6.66942 17.961493,-14.11289 1.34656,-3.23458 1.71413,-5.18768 1.69894,-9.02741 -0.0167,-4.21346 -0.55883,-6.50906 -2.43701,-10.31875 -2.31739,-4.7006 -5.73692,-8.10274 -10.47654,-10.42327 -4.112623,-2.01355 -5.338183,-2.27898 -10.451043,-2.26353 -4.05971,0.0123 -4.52322,0.0654 -6.61459,0.75845 -8.11148,2.68797 -13.77722,8.63513 -15.90103,16.69085 -0.80027,3.03548 -0.81106,7.88247 -0.0246,11.05995 2.92873,11.83308 14.35589,19.51229 26.24441,17.6366 z m -13.49375,-11.20778 c 0,-0.0777 0.60541,-1.60361 1.34534,-3.39102 0.73994,-1.7874 1.44847,-3.51009 1.57451,-3.82819 0.20681,-0.52195 0.1014,-0.6208 -1.08061,-1.01341 -0.72038,-0.23927 -1.49262,-0.69338 -1.71608,-1.00913 -0.37805,-0.53418 -0.35937,-0.61486 0.26866,-1.16035 0.37122,-0.32244 1.17907,-0.7114 1.79521,-0.86435 2.91155,-0.7228 2.45205,-0.16884 4.72477,-5.69604 1.13623,-2.76331 2.19849,-5.31845 2.36056,-5.67809 0.26862,-0.59606 0.50031,-0.15389 2.61923,4.99875 l 2.32454,5.65265 1.93382,0.4911 c 1.93004,0.49013 3.164643,1.08801 3.164643,1.53252 0,0.45978 -1.617883,1.58664 -2.521333,1.75613 -0.50504,0.0948 -0.91826,0.18934 -0.91826,0.21021 0,0.0209 0.71438,1.75336 1.5875,3.84996 0.87313,2.09661 1.587503,3.91175 1.587503,4.03365 0,0.1219 -0.2764,0.22164 -0.614223,0.22164 -0.53653,0 -0.82334,-0.47699 -2.26706,-3.77032 l -1.65282,-3.77031 -4.94285,0.0485 -4.94284,0.0485 -1.61964,3.65563 c -1.44084,3.25209 -1.69641,3.66488 -2.3151,3.73935 -0.38251,0.0461 -0.69547,0.0202 -0.69547,-0.0574 z m 13.61647,-8.92396 c 0.30509,-0.30577 -0.98817,-2.56861 -1.555,-2.7208 -0.74006,-0.19871 -2.97684,-0.19378 -4.46236,0.01 -1.14198,0.15652 -1.23411,0.23295 -1.73567,1.43986 -0.48568,1.16865 -0.49296,1.28528 -0.0877,1.40365 0.63348,0.18502 7.64209,0.0665 7.84074,-0.13255 z m -9.51898,-1.18878 c 0.52147,-1.24805 0.52224,-1.24563 -0.32717,-1.03679 -0.90969,0.22366 -1.91823,0.863 -1.91823,1.21602 0,0.27048 0.91807,0.73161 1.5178,0.76235 0.17995,0.009 0.50737,-0.41449 0.7276,-0.94158 z m 12.30942,0.69377 c 0.29613,0 1.05559,-0.7677 1.05559,-1.06704 0,-0.27306 -1.98798,-0.85545 -2.50708,-0.73446 -0.28438,0.0663 -0.27413,0.27191 0.0543,1.08902 0.27617,0.68719 0.52692,0.96047 0.789,0.8599 0.2113,-0.0811 0.48501,-0.14742 0.60823,-0.14742 z m -5.38139,-5.79876 c -0.75252,-1.73411 -1.44771,-3.07356 -1.54486,-2.97656 -0.23363,0.23326 -2.60149,5.60252 -2.60149,5.89902 0,0.12675 1.24078,0.23046 2.75729,0.23046 h 2.75729 z m 25.970763,7.12167 c 1.11482,-2.86479 1.47555,-4.78739 1.46447,-7.80521 -0.0382,-10.40337 -6.79812,-19.27123 -16.95321,-22.23967 -2.5843,-0.75542 -7.054243,-1.10686 -9.072123,-0.71329 l -1.19063,0.23223 2.2427,0.33724 c 10.765413,1.61886 18.982433,8.7526 22.125373,19.20849 0.64574,2.14826 0.7183,2.80841 0.74156,6.74688 0.0142,2.40109 -0.0657,4.77862 -0.17761,5.2834 -0.27626,1.24657 0.12667,0.73026 0.81947,-1.05007 z"
       id="path1" /><g
       id="g5"
       inkscape:export-filename="g5.svg"
       inkscape:export-xdpi="96"
       inkscape:export-ydpi="96"><path
         style="opacity:1;fill:#AB8A53;stroke:none;stroke-width:2.688;stroke-linecap:round;stroke-linejoin:round;stroke-dasharray:none;stroke-opacity:1;paint-order:stroke fill markers"
         d="m 42.884894,197.16621 12.304569,-26.46251 12.277701,26.65741 h -4.395131 l -7.88257,-17.48497 -7.739247,17.34165 z"
         id="path2" /><path
         id="path3"
         style="color:#AB8A53;fill:#AB8A53;stroke-linecap:round;stroke-linejoin:round;-inkscape-stroke:none;paint-order:stroke fill markers"
         d="m 47.526298,185.45121 c -0.408216,0.0408 -0.804199,0.0836 -1.172538,0.13074 -1.145753,0.14657 -2.081787,0.31761 -2.808614,0.53744 -0.363415,0.10992 -0.67371,0.22323 -0.978752,0.41393 -0.305041,0.1907 -0.761711,0.55765 -0.761711,1.2423 0,0.68465 0.45667,1.05108 0.761711,1.24178 0.305042,0.1907 0.615337,0.30454 0.978752,0.41445 0.726827,0.21983 1.662861,0.39035 2.808614,0.53692 2.291502,0.29314 5.393501,0.4687 8.8222,0.4687 3.428701,0 6.530696,-0.17556 8.822201,-0.4687 1.145752,-0.14657 2.081786,-0.31709 2.808614,-0.53692 0.363414,-0.10991 0.673194,-0.22375 0.978235,-0.41445 0.30504,-0.1907 0.76171,-0.55713 0.76171,-1.24178 0,-0.68465 -0.45667,-1.0516 -0.76171,-1.2423 -0.305041,-0.1907 -0.614821,-0.30401 -0.978235,-0.41393 -0.726828,-0.21983 -1.662862,-0.39087 -2.808614,-0.53744 -0.348382,-0.0446 -0.72113,-0.0857 -1.105876,-0.12454 l -0.02119,0.0233 1.003556,2.29288 h -0.0088 c 0.0042,6.5e-4 0.0062,10e-4 0.01085,0.002 -0.06672,0.009 -0.08756,0.0201 -0.156063,0.0289 -2.152919,0.27541 -5.191434,0.45113 -8.544698,0.45113 -3.353261,0 -6.392294,-0.17572 -8.545215,-0.45113 -0.05589,-0.007 -0.08342,-0.0158 -0.127124,-0.0238 h -0.07545 z" /></g></g></svg>
