<?xml version="1.0" encoding="UTF-8" standalone="no"?>
<!-- Created with Inkscape (http://www.inkscape.org/) -->

<svg
   width="66.182373mm"
   height="66.096535mm"
   viewBox="0 0 66.182373 66.096535"
   version="1.1"
   id="svg1"
   xml:space="preserve"
   xmlns:inkscape="http://www.inkscape.org/namespaces/inkscape"
   xmlns:sodipodi="http://sodipodi.sourceforge.net/DTD/sodipodi-0.dtd"
   xmlns="http://www.w3.org/2000/svg"
   xmlns:svg="http://www.w3.org/2000/svg"><sodipodi:namedview
     id="namedview1"
     pagecolor="#ffffff"
     bordercolor="#111111"
     borderopacity="1"
     inkscape:showpageshadow="0"
     inkscape:pageopacity="0"
     inkscape:pagecheckerboard="1"
     inkscape:deskcolor="#d1d1d1"
     inkscape:document-units="mm" /><defs
     id="defs1" /><g
     inkscape:label="Layer 1"
     inkscape:groupmode="layer"
     id="layer1"
     transform="translate(80.351686,-141.91241)"><g
       id="g6"
       transform="translate(-75.099373,-9.5546276)"><path
         id="path7"
         style="color:#000000;fill:#265b62;stroke-width:1.18345;stroke-linecap:round;stroke-linejoin:round;stroke-dasharray:1.761, 3.522;-inkscape-stroke:none;paint-order:stroke fill markers"
         d="m 26.06464,151.48033 -0.191203,0.0341 a 0.88058577,0.88058577 0 0 0 -0.02532,0.005 l -0.334864,0.0687 a 0.88058577,0.88058577 0 0 0 -0.02377,0.008 l -0.333313,0.0791 a 0.88058577,0.88058577 0 0 0 -0.02532,0.005 l -0.331246,0.0894 a 0.88058577,0.88058577 0 0 0 -0.02325,0.006 l -0.331245,0.0987 a 0.88058577,0.88058577 0 0 0 -0.02377,0.008 l -0.330729,0.10594 a 0.88058577,0.88058577 0 0 0 -0.0217,0.009 l -0.156063,0.0553 a 0.88049772,0.88049772 0 0 0 -0.501778,0.4501 0.88049772,0.88049772 0 0 0 -0.03566,0.67231 0.88049772,0.88049772 0 0 0 0.02894,0.032 c -0.729993,0.3057 -1.453848,0.66263 -2.16886,1.07849 a 0.88049772,0.88049772 0 0 0 -0.0098,-0.0207 0.88049772,0.88049772 0 0 0 -1.214913,-0.27233 c -0.606862,0.38423 -1.19664,0.79117 -1.770435,1.2175 a 0.88049772,0.88049772 0 0 0 -0.180867,1.23248 0.88049772,0.88049772 0 0 0 0.01499,0.009 c -0.630266,0.49141 -1.252001,1.00344 -1.862419,1.53634 a 0.88049772,0.88049772 0 0 0 -0.0057,-0.008 0.88049772,0.88049772 0 0 0 -1.242818,-0.0641 L 14.66122,158.188 a 0.88058577,0.88058577 0 0 0 -0.0098,0.009 l -0.580843,0.53847 a 0.88058577,0.88058577 0 0 0 -0.0062,0.005 l -0.575159,0.54467 a 0.88058577,0.88058577 0 0 0 -0.0067,0.005 l -0.06718,0.0646 a 0.88049772,0.88049772 0 0 0 -0.0217,1.24489 0.88049772,0.88049772 0 0 0 0.0088,0.004 c -0.602697,0.58781 -1.137464,1.11932 -1.71049,1.69757 a 0.88049772,0.88049772 0 0 0 -0.0031,-0.004 0.88049772,0.88049772 0 0 0 -1.245919,0.007 c -0.4916773,0.49626 -0.9770861,0.99282 -1.4634761,1.48104 a 0.88049772,0.88049772 0 0 0 -0.2563151,0.62219 v 5.1e-4 a 0.88049772,0.88049772 0 0 0 0.2578654,0.61961 c -0.050268,0.05 -0.1123393,0.11334 -0.162264,0.16278 -0.473382,0.46871 -1.0451452,1.02331 -1.5601115,1.52135 a 0.88049772,0.88049772 0 0 0 -0.00103,-0.002 0.88049772,0.88049772 0 0 0 -1.2464356,-0.017 c -0.4939747,0.481 -0.997248,0.96196 -1.4980998,1.45727 v 5.2e-4 a 0.88049772,0.88049772 0 0 0 -0.00723,1.24592 0.88049772,0.88049772 0 0 0 0.00258,0.001 c -0.5627466,0.56091 -1.1227482,1.14161 -1.6784506,1.72703 a 0.88049772,0.88049772 0 0 0 -0.00827,-0.01 0.88049772,0.88049772 0 0 0 -1.2443685,0.0455 c -0.4819703,0.51842 -0.95280985,1.04843 -1.41128334,1.58647 a 0.88049772,0.88049772 0 0 0 0.0997355,1.23972 0.88049772,0.88049772 0 0 0 0.0118856,0.004 c -0.51546331,0.63168 -0.99749359,1.27597 -1.45417486,1.92649 a 0.88049772,0.88049772 0 0 0 -0.01602,-0.0139 0.88049772,0.88049772 0 0 0 -1.2211141,0.25115 l -0.060461,0.0909 a 0.88058577,0.88058577 0 0 0 -0.00413,0.006 c -0.3685824,0.56978 -0.7200741,1.15904 -1.0402466,1.77147 v 5.1e-4 a 0.88049772,0.88049772 0 0 0 0.3731039,1.18701 0.88049772,0.88049772 0 0 0 0.028939,0.003 c -0.3485336,0.748 -0.6379309,1.50363 -0.8474935,2.26601 a 0.88049772,0.88049772 0 0 0 -0.043925,-0.0145 0.88049772,0.88049772 0 0 0 -1.0288777,0.70383 l -0.05116,0.27337 a 0.88058577,0.88058577 0 0 0 -0.00465,0.0274 l -0.050643,0.33383 a 0.88058577,0.88058577 0 0 0 -0.00517,0.0274 l -0.041341,0.33589 a 0.88058577,0.88058577 0 0 0 -0.00258,0.0279 l -0.029972,0.33693 a 0.88058577,0.88058577 0 0 0 -5.168e-4,0.0289 l -0.020671,0.33693 a 0.88058577,0.88058577 0 0 0 -5.167e-4,0.0284 l -0.00827,0.33796 a 0.88058577,0.88058577 0 0 0 0.00207,0.0295 l 5.168e-4,0.11989 a 0.88049772,0.88049772 0 0 0 0.8909016,0.8692 0.88049772,0.88049772 0 0 0 0.049609,-0.007 c 0.075415,0.79498 0.2445651,1.58504 0.4898926,2.36937 a 0.88049772,0.88049772 0 0 0 -0.046509,-0.002 0.88049772,0.88049772 0 0 0 -0.4904093,0.4625 h -5.168e-4 a 0.88049772,0.88049772 0 0 0 -0.018603,0.67283 l 0.058394,0.15503 a 0.88058577,0.88058577 0 0 0 0.0093,0.0191 l 0.1328084,0.32917 a 0.88058577,0.88058577 0 0 0 0.00775,0.016 l 0.142627,0.32918 a 0.88058577,0.88058577 0 0 0 0.00465,0.0109 c 0.1717753,0.38244 0.3552604,0.76119 0.5565552,1.13688 a 0.88049772,0.88049772 0 0 0 1.1926921,0.36173 0.88049772,0.88049772 0 0 0 0.017053,-0.0119 c 0.3987922,0.6827 0.8419687,1.35724 1.31878256,2.02313 a 0.88049772,0.88049772 0 0 0 -0.0180868,0.005 0.88049772,0.88049772 0 0 0 -0.17156576,1.23248 c 0.42985841,0.569 0.87627839,1.12249 1.33325195,1.66347 a 0.88049772,0.88049772 0 0 0 1.23920085,0.10335 0.88049772,0.88049772 0 0 0 0.00723,-0.008 c 0.5313888,0.6077 1.0808107,1.1929 1.6340088,1.77819 a 0.88049772,0.88049772 0 0 0 -0.01602,0.006 0.88049772,0.88049772 0 0 0 -0.2687174,0.6165 v 5.2e-4 a 0.88049772,0.88049772 0 0 0 0.2449463,0.62786 c 0.4874587,0.50785 0.9804157,1.00704 1.4738118,1.50017 a 0.88049772,0.88049772 0 0 0 1.2443685,-0.003 0.88049772,0.88049772 0 0 0 0.00413,-0.006 c 0.5881919,0.58268 1.1559726,1.15205 1.7104899,1.70067 a 0.88049772,0.88049772 0 0 0 0.00362,1.24075 c 0.4874263,0.48495 0.9698958,0.97862 1.451591,1.47484 a 0.88049772,0.88049772 0 0 0 1.2443681,0.0181 c 0.551526,0.57036 1.098143,1.12759 1.682585,1.72599 a 0.88049772,0.88049772 0 0 0 -0.0062,0.003 0.88049772,0.88049772 0 0 0 -0.263033,0.62063 v 5.2e-4 a 0.88049772,0.88049772 0 0 0 0.253214,0.62477 c 0.458429,0.46589 0.920544,0.92314 1.386996,1.37821 a 0.88058577,0.88058577 0 0 0 0.0031,0.006 l 0.104904,0.0982 a 0.88049772,0.88049772 0 0 0 1.244885,-0.0217 0.88049772,0.88049772 0 0 0 0.0067,-0.009 c 0.584318,0.55395 1.173013,1.10064 1.779219,1.62833 a 0.88049772,0.88049772 0 0 0 -0.01137,0.006 0.88049772,0.88049772 0 0 0 -0.202572,0.64441 0.88049772,0.88049772 0 0 0 0.314193,0.59634 c 0.543369,0.45482 1.098275,0.89828 1.672249,1.32447 a 0.88049772,0.88049772 0 0 0 1.233,-0.18087 0.88049772,0.88049772 0 0 0 0.01033,-0.0181 c 0.673415,0.47126 1.355199,0.90492 2.04587,1.29087 a 0.88049772,0.88049772 0 0 0 -0.02532,0.0222 h -5.16e-4 a 0.88049772,0.88049772 0 0 0 0.395841,1.18184 l 0.217558,0.10749 a 0.88058577,0.88058577 0 0 0 0.0067,0.002 c 0.337515,0.16351 0.681396,0.31938 1.031461,0.46147 a 0.88058577,0.88058577 0 0 0 0.01137,0.003 l 0.327112,0.12764 a 0.88058577,0.88058577 0 0 0 0.01912,0.008 l 0.328662,0.12092 a 0.88058577,0.88058577 0 0 0 0.02171,0.008 l 0.06666,0.0207 a 0.88049772,0.88049772 0 0 0 1.114144,-0.55345 0.88049772,0.88049772 0 0 0 0.0052,-0.0258 c 0.79133,0.2148 1.589775,0.33381 2.392619,0.36845 a 0.88049772,0.88049772 0 0 0 -0.01964,0.0548 v 10e-4 a 0.88049772,0.88049772 0 0 0 0.920874,0.83871 l 0.186036,-0.007 a 0.88058577,0.88058577 0 0 0 0.02997,-0.004 l 0.33538,-0.0258 a 0.88058577,0.88058577 0 0 0 0.02894,-0.002 l 0.334863,-0.0403 a 0.88058577,0.88058577 0 0 0 0.02687,-0.002 l 0.33693,-0.0491 a 0.88058577,0.88058577 0 0 0 0.02532,-0.005 l 0.334346,-0.0568 a 0.88058577,0.88058577 0 0 0 0.02532,-0.005 l 0.334863,-0.0692 a 0.88058577,0.88058577 0 0 0 0.02532,-0.005 l 0.197921,-0.0491 a 0.88049772,0.88049772 0 0 0 0.65164,-1.06091 0.88049772,0.88049772 0 0 0 -0.02997,-0.0413 c 0.757826,-0.23773 1.509569,-0.53961 2.253609,-0.90847 a 0.88049772,0.88049772 0 0 0 0.0031,0.0279 0.88049772,0.88049772 0 0 0 1.197343,0.34623 c 0.636291,-0.34997 1.248483,-0.73083 1.842265,-1.13068 a 0.88049772,0.88049772 0 0 0 0.238228,-1.22163 0.88049772,0.88049772 0 0 0 -0.01757,-0.0114 c 0.647956,-0.46494 1.285961,-0.96107 1.915129,-1.4795 a 0.88049772,0.88049772 0 0 0 0.0041,0.0124 0.88049772,0.88049772 0 0 0 1.240235,0.0992 c 0.251068,-0.2136 0.495672,-0.42886 0.736389,-0.64233 a 0.88058577,0.88058577 0 0 0 0.0057,-0.003 l 0.588595,-0.53175 a 0.88058577,0.88058577 0 0 0 0.0093,-0.007 l 0.243913,-0.22583 a 0.88049772,0.88049772 0 0 0 0.04754,-1.24488 0.88049772,0.88049772 0 0 0 -0.01809,-0.008 c 0.595015,-0.56288 1.170917,-1.11 1.739945,-1.67535 a 0.88049772,0.88049772 0 0 0 0.0021,0.005 0.88049772,0.88049772 0 0 0 1.246436,-0.002 l 0.138493,-0.13953 a 0.88058577,0.88058577 0 0 0 0.0036,-0.004 l 1.056266,-1.06764 a 0.88058577,0.88058577 0 0 0 5.17e-4,-0.002 l 0.270268,-0.27079 a 0.88049772,0.88049772 0 0 0 -0.0072,-1.24385 c 0.357539,-0.36127 0.767638,-0.77773 1.109493,-1.11621 0.181864,-0.18007 0.410656,-0.39996 0.599447,-0.58446 a 0.88049772,0.88049772 0 0 0 1.239717,0.0196 l 0.805636,-0.78135 0.690914,-0.66921 a 0.88049772,0.88049772 0 0 0 0.01912,-1.2454 0.88049772,0.88049772 0 0 0 -0.0067,-0.003 c 0.580048,-0.56678 1.12311,-1.11517 1.707389,-1.70998 a 0.88049772,0.88049772 0 0 0 0.0067,0.016 0.88049772,0.88049772 0 0 0 1.244886,-0.0217 l 0.193786,-0.20102 a 0.88058577,0.88058577 0 0 0 0.0062,-0.005 l 0.543637,-0.57774 a 0.88058577,0.88058577 0 0 0 0.0072,-0.008 l 0.537952,-0.58394 a 0.88058577,0.88058577 0 0 0 0.0072,-0.008 l 0.147794,-0.1633 a 0.88049772,0.88049772 0 0 0 -0.06511,-1.24488 0.88049772,0.88049772 0 0 0 -0.0124,-0.004 c 0.532956,-0.61328 1.044261,-1.23759 1.530655,-1.87068 a 0.88049772,0.88049772 0 0 0 0.01034,0.0165 0.88049772,0.88049772 0 0 0 1.229382,-0.19378 c 0.420009,-0.57779 0.824462,-1.17267 1.200444,-1.79008 a 0.88049772,0.88049772 0 0 0 -0.294039,-1.21129 0.88049772,0.88049772 0 0 0 -0.02739,-0.004 c 0.402542,-0.72244 0.759897,-1.45251 1.043864,-2.19056 a 0.88049772,0.88049772 0 0 0 0.02946,0.0243 0.88049772,0.88049772 0 0 0 1.101224,-0.58291 l 0.07441,-0.24598 a 0.88058577,0.88058577 0 0 0 0.0083,-0.0217 l 0.09095,-0.33228 a 0.88058577,0.88058577 0 0 0 0.0067,-0.0243 l 0.0832,-0.33177 a 0.88058577,0.88058577 0 0 0 0.0041,-0.0253 l 0.07441,-0.33176 a 0.88058577,0.88058577 0 0 0 0.0047,-0.0274 l 0.06253,-0.33279 a 0.88058577,0.88058577 0 0 0 0.0047,-0.0274 l 0.05064,-0.33383 a 0.88058577,0.88058577 0 0 0 0.0052,-0.0274 l 0.01344,-0.12092 a 0.88049772,0.88049772 0 0 0 -0.766878,-0.98134 0.88049772,0.88049772 0 0 0 -0.04961,0.0139 c 0.0051,-0.12148 0.02575,-0.24211 0.02636,-0.3638 0.0034,-0.69039 -0.08721,-1.37692 -0.221691,-2.06086 a 0.88049772,0.88049772 0 0 0 0.04909,0.007 0.88049772,0.88049772 0 0 0 0.623218,-1.07797 l -0.03049,-0.10904 a 0.88058577,0.88058577 0 0 0 -0.0057,-0.0232 l -0.0987,-0.33125 a 0.88058577,0.88058577 0 0 0 -0.0062,-0.0232 L 60.3349,180.65219 a 0.88058577,0.88058577 0 0 0 -0.0088,-0.0217 l -0.116272,-0.32866 a 0.88058577,0.88058577 0 0 0 -0.0041,-0.0109 c -0.11191,-0.30286 -0.233675,-0.60914 -0.368969,-0.91313 a 0.88049772,0.88049772 0 0 0 -1.162203,-0.447 0.88049772,0.88049772 0 0 0 -0.0186,0.0196 c -0.352532,-0.70831 -0.752097,-1.40976 -1.19941,-2.1022 a 0.88049772,0.88049772 0 0 0 0.01809,-0.004 0.88049772,0.88049772 0 0 0 0.224792,-1.22525 c -0.407245,-0.5889 -0.836176,-1.15955 -1.277441,-1.71721 a 0.88049772,0.88049772 0 0 0 -1.235583,-0.14366 0.88049772,0.88049772 0 0 0 -0.0078,0.0134 c -0.510275,-0.61828 -1.037118,-1.22832 -1.579748,-1.82573 a 0.88049772,0.88049772 0 0 0 0.0031,-0.001 0.88049772,0.88049772 0 0 0 0.04806,-1.24489 l -0.06305,-0.0677 a 0.88058577,0.88058577 0 0 0 -0.0036,-0.006 c -0.458173,-0.48892 -0.921449,-0.97305 -1.393197,-1.45211 a 0.88049772,0.88049772 0 0 0 -1.245402,-0.01 v 5.2e-4 a 0.88049772,0.88049772 0 0 0 -0.0021,0.004 c -0.596335,-0.59981 -1.133136,-1.132 -1.70894,-1.69963 a 0.88049772,0.88049772 0 0 0 0.0041,-0.002 0.88049772,0.88049772 0 0 0 -0.0098,-1.24385 c -0.49372,-0.48602 -0.984618,-0.97335 -1.469678,-1.46296 a 0.88049772,0.88049772 0 0 0 -0.42633,-0.21963 0.88049772,0.88049772 0 0 0 0.0026,-0.21032 c -0.48061,-0.48784 -0.95821,-0.98857 -1.447456,-1.49087 a 0.88049772,0.88049772 0 0 0 -1.245919,-0.0171 0.88049772,0.88049772 0 0 0 -5.17e-4,0.002 c -0.568886,-0.58747 -1.085215,-1.12208 -1.685168,-1.72444 a 0.88049772,0.88049772 0 0 0 0.0078,-0.003 0.88049772,0.88049772 0 0 0 -0.0098,-1.24385 l -0.424781,-0.41807 a 0.88058577,0.88058577 0 0 0 -0.0062,-0.004 l -0.571024,-0.55139 a 0.88058577,0.88058577 0 0 0 -0.0052,-0.006 l -0.509013,-0.47904 a 0.88049772,0.88049772 0 0 0 -1.243852,0.0362 0.88049772,0.88049772 0 0 0 -0.0062,0.0165 c -0.598823,-0.54354 -1.205207,-1.07737 -1.824695,-1.58388 a 0.88049772,0.88049772 0 0 0 0.0083,-0.005 0.88049772,0.88049772 0 0 0 -0.150896,-1.23662 c -0.56147,-0.43846 -1.138879,-0.8613 -1.734778,-1.26245 a 0.88049772,0.88049772 0 0 0 -1.222664,0.23822 0.88049772,0.88049772 0 0 0 -0.0052,0.0264 c -0.701541,-0.43876 -1.41105,-0.83541 -2.129069,-1.17099 a 0.88049772,0.88049772 0 0 0 0.03049,-0.0315 0.88049772,0.88049772 0 0 0 -0.497644,-1.14205 l -0.299207,-0.11524 a 0.88058577,0.88058577 0 0 0 -0.01912,-0.008 l -0.328662,-0.12092 a 0.88058577,0.88058577 0 0 0 -0.02274,-0.006 l -0.328662,-0.11111 a 0.88058577,0.88058577 0 0 0 -0.0217,-0.008 l -0.33228,-0.10026 a 0.88058577,0.88058577 0 0 0 -0.02119,-0.008 l -0.33228,-0.091 a 0.88058577,0.88058577 0 0 0 -0.0248,-0.007 l -0.331763,-0.0832 a 0.88058577,0.88058577 0 0 0 -0.02532,-0.004 l -0.03101,-0.009 a 0.88049772,0.88049772 0 0 0 -1.046965,0.67438 0.88049772,0.88049772 0 0 0 0.0057,0.03 c -0.48503,-0.0729 -0.971611,-0.11902 -1.460376,-0.12144 -0.318845,-0.002 -0.636325,0.031 -0.953947,0.0599 a 0.88049772,0.88049772 0 0 0 -0.0026,-0.0548 0.88049772,0.88049772 0 0 0 -1.019576,-0.71469 z m 1.829862,16.25069 7.909595,17.17311 c 0.211854,-0.0235 0.424264,-0.0471 0.621668,-0.0724 0.0685,-0.009 0.08934,-0.0199 0.156062,-0.0289 -0.0046,-0.001 -0.0067,-0.001 -0.01085,-0.002 h 0.0088 l -1.003556,-2.29288 0.02119,-0.0233 c 0.384746,0.0388 0.757494,0.0799 1.105876,0.12454 1.14575,0.14657 2.081788,0.31761 2.808614,0.53744 0.363414,0.10992 0.673194,0.22322 0.978235,0.41392 0.30504,0.1907 0.761711,0.55766 0.761711,1.24231 0,0.68463 -0.456671,1.05108 -0.761711,1.24178 -0.305041,0.1907 -0.614821,0.30454 -0.978235,0.41445 -0.713436,0.21576 -1.631096,0.38391 -2.748153,0.52864 l 3.408578,7.40059 h -4.395081 l -3.175,-7.04247 c -1.459636,0.0767 -3.050391,0.11886 -4.721158,0.11886 -1.643467,0 -3.20823,-0.0415 -4.648296,-0.11576 l -3.077331,6.89622 -4.565613,-0.0517 3.354317,-7.21352 c -1.091529,-0.14309 -1.992484,-0.30876 -2.693892,-0.52089 -0.363415,-0.10991 -0.67371,-0.22375 -0.978752,-0.41445 -0.305039,-0.1907 -0.76171,-0.55715 -0.76171,-1.24178 0,-0.68465 0.456671,-1.05161 0.76171,-1.24231 0.305042,-0.1907 0.615337,-0.304 0.978752,-0.41392 0.726825,-0.21983 1.662863,-0.39087 2.808614,-0.53744 0.368339,-0.0471 0.764324,-0.0899 1.172538,-0.13074 l -1.098124,2.32957 h 0.07545 c 0.0437,0.008 0.07123,0.0168 0.127124,0.0238 0.182695,0.0234 0.380566,0.0453 0.575675,0.0672 z m 0,9.17257 -3.706233,8.30492 c 1.163499,0.0476 2.403993,0.0744 3.692798,0.0744 1.312732,0 2.57435,-0.0277 3.756359,-0.077 z" /></g></g></svg>
